<?xml version="1.0" encoding="UTF-8"?>
<svg width="210px" height="36px" viewBox="0 0 210 36" version="1.1" xmlns="http://www.w3.org/2000/svg" xmlns:xlink="http://www.w3.org/1999/xlink">
    <!-- Generator: Sketch 52.6 (67491) - http://www.bohemiancoding.com/sketch -->
    <title>Logo_PowerSchool-SIS-Inverse</title>
    <desc>Created with Sketch.</desc>
    <g id="Logo_PowerSchool-SIS-Inverse" stroke="none" stroke-width="1" fill="none" fill-rule="evenodd">
        <path d="M43.496,10.624 C45.2560088,10.624 46.6279951,11.0519957 47.612,11.908 C48.5960049,12.7640043 49.088,13.987992 49.088,15.58 C49.088,17.172008 48.5960049,18.3959957 47.612,19.252 C46.6279951,20.1080043 45.2560088,20.536 43.496,20.536 L40.856,20.536 L40.856,26.2 L38,26.2 L38,10.624 L43.496,10.624 Z M43.496,18.064 C44.3760044,18.064 45.0399978,17.8320023 45.488,17.368 C45.9360022,16.9039977 46.16,16.3080036 46.16,15.58 C46.16,14.8519964 45.9360022,14.2520024 45.488,13.78 C45.0399978,13.3079976 44.3760044,13.072 43.496,13.072 L40.856,13.072 L40.856,18.064 L43.496,18.064 Z M55.05,14.224 C55.834004,14.224 56.5699966,14.3479988 57.258,14.596 C57.9460035,14.8440012 58.5379976,15.2239974 59.034,15.736 C60.1380056,16.8560056 60.69,18.4079901 60.69,20.392 C60.69,22.3440098 60.1380056,23.8799944 59.034,25 C58.0419951,26.0240051 56.7140084,26.536 55.05,26.536 C53.3859917,26.536 52.0420052,26.0240051 51.018,25 C49.9139945,23.8959945 49.362,22.3600098 49.362,20.392 C49.362,18.39199 49.9139945,16.8400055 51.018,15.736 C52.0260051,14.727995 53.3699916,14.224 55.05,14.224 Z M57.858,20.368 C57.858,19.1359938 57.6180024,18.2120031 57.138,17.596 C56.6579976,16.9799969 55.9900043,16.672 55.134,16.672 C54.2779958,16.672 53.5780028,16.9799969 53.034,17.596 C52.4899973,18.2120031 52.218,19.1359938 52.218,20.368 C52.218,21.6000062 52.4619976,22.5239969 52.95,23.14 C53.4380025,23.7560031 54.1059958,24.064 54.954,24.064 C55.8020043,24.064 56.4979973,23.7560031 57.042,23.14 C57.5860028,22.5239969 57.858,21.6000062 57.858,20.368 Z M63.5320001,14.536 L65.8840001,22.864 L68.1160001,15.184 L70.6840001,15.184 L72.9160001,22.888 L75.2920001,14.536 L78.1240001,14.536 L74.2840001,26.2 L71.5000001,26.2 L69.3400001,19.216 L67.2280001,26.2 L64.4200001,26.2 L60.5560001,14.536 L63.5320001,14.536 Z M87.2780001,15.928 C87.6780021,16.4400026 87.9779991,17.0319966 88.1780001,17.704 C88.3780011,18.3760034 88.4780001,18.9919972 88.4780001,19.552 C88.4780001,20.1120028 88.4460005,20.6159978 88.3820001,21.064 L80.8460001,21.064 C80.8780003,22.0080047 81.109998,22.775997 81.5420001,23.368 C81.9740023,23.960003 82.6299957,24.256 83.5100001,24.256 C84.678006,24.256 85.373999,23.7440051 85.5980001,22.72 L88.4540001,22.72 C88.2619992,23.8880058 87.7260045,24.8079966 86.8460001,25.48 C85.9339956,26.1840035 84.8220067,26.536 83.5100001,26.536 C81.9739925,26.536 80.6860053,25.9760056 79.6460001,24.856 C78.5739948,23.6879942 78.0380001,22.1920091 78.0380001,20.368 C78.0380001,18.4959906 78.5739948,16.9920057 79.6460001,15.856 C80.6700053,14.7679946 81.9579924,14.224 83.5100001,14.224 C85.1260082,14.224 86.3819957,14.7919943 87.2780001,15.928 Z M83.5340001,16.48 C82.7339961,16.48 82.1100024,16.7399974 81.6620001,17.26 C81.2139979,17.7800026 80.9500005,18.4479959 80.8700001,19.264 L85.8380001,19.264 C85.8380001,17.9999937 85.4380041,17.1520022 84.6380001,16.72 C84.3339986,16.5599992 83.9660023,16.48 83.5340001,16.48 Z M93.1440002,16.84 C93.8480037,15.1599916 94.9039932,14.32 96.3120002,14.32 C96.5840016,14.32 96.9279981,14.3759994 97.3440002,14.488 L97.2960002,17.32 C96.847998,17.2239995 96.4080024,17.176 95.9760002,17.176 C94.0879908,17.176 93.1440002,18.479987 93.1440002,21.088 L93.1440002,26.2 L90.3120002,26.2 L90.3120002,14.512 L93.1440002,14.512 L93.1440002,16.84 Z M106.93,14.92 C106.673999,13.5599932 105.714009,12.88 104.05,12.88 C103.233996,12.88 102.598003,13.0439984 102.142,13.372 C101.685998,13.7000016 101.458,14.0959977 101.458,14.56 C101.458,15.0240023 101.605999,15.3879987 101.902,15.652 C102.198002,15.9160013 102.657997,16.1599989 103.282,16.384 L106.666,17.704 C107.818006,18.1520022 108.705997,18.7159966 109.33,19.396 C109.954003,20.0760034 110.266,20.9279949 110.266,21.952 C110.266,23.360007 109.738006,24.4759959 108.682,25.3 C107.625995,26.1240041 106.12201,26.536 104.17,26.536 C102.441992,26.536 101.042006,26.1120042 99.9700002,25.264 C98.7699942,24.3359954 98.1380006,23.0240085 98.0740002,21.328 L100.882,21.328 C100.882,22.6080064 101.545994,23.4159983 102.874,23.752 C103.274002,23.8640006 103.801997,23.92 104.458,23.92 C105.114004,23.92 105.721997,23.7560016 106.282,23.428 C106.842003,23.0999984 107.122,22.6600028 107.122,22.108 C107.122,21.5559972 106.970002,21.1320015 106.666,20.836 C106.361999,20.5399985 105.866004,20.2640013 105.178,20.008 L102.082,18.784 C100.881994,18.3199977 99.9620034,17.7760031 99.3220002,17.152 C98.681997,16.5279969 98.3620002,15.6640055 98.3620002,14.56 C98.3620002,13.2639935 98.8659952,12.2400038 99.8740002,11.488 C100.898005,10.7039961 102.285991,10.312 104.038,10.312 C105.790009,10.312 107.141995,10.715996 108.094,11.524 C109.046005,12.332004 109.594,13.4639927 109.738,14.92 L106.93,14.92 Z M116.948,14.224 C117.684004,14.224 118.343997,14.3479988 118.928,14.596 C119.512003,14.8440012 120.003998,15.167998 120.404,15.568 C121.204004,16.3360038 121.676,17.3039942 121.82,18.472 L118.964,18.544 C118.836,18.0319974 118.600002,17.6080017 118.256,17.272 C117.911999,16.9359983 117.516003,16.768 117.068,16.768 C116.619998,16.768 116.236002,16.8359993 115.916,16.972 C115.595999,17.1080007 115.316001,17.3199986 115.076,17.608 C114.531998,18.2800034 114.26,19.2079941 114.26,20.392 C114.26,21.5760059 114.515998,22.467997 115.028,23.068 C115.540003,23.668003 116.159997,23.968 116.888,23.968 C117.616004,23.968 118.143999,23.7960017 118.472,23.452 C118.800002,23.1079983 118.964,22.640003 118.964,22.048 L121.82,22.048 C121.82,23.3280064 121.396005,24.3919958 120.548,25.24 C119.683996,26.1040043 118.476008,26.536 116.924,26.536 C115.387993,26.536 114.100005,25.9760056 113.06,24.856 C111.955995,23.655994 111.404,22.160009 111.404,20.368 C111.404,18.4799906 111.955995,16.9680057 113.06,15.832 C114.100005,14.7599946 115.395993,14.224 116.948,14.224 Z M126.51,16.432 C127.310004,14.9599926 128.477993,14.224 130.014,14.224 C131.550008,14.224 132.681997,14.6959953 133.41,15.64 C134.138004,16.5840047 134.502,17.8319922 134.502,19.384 L134.502,26.2 L131.67,26.2 L131.67,19.384 C131.67,18.5199957 131.462002,17.8680022 131.046,17.428 C130.629998,16.9879978 130.046004,16.768 129.294,16.768 C128.541997,16.768 127.898003,17.1039966 127.362,17.776 C126.825998,18.4480034 126.542,19.4559933 126.51,20.8 L126.51,26.2 L123.678,26.2 L123.678,9.736 L126.51,9.736 L126.51,16.432 Z M141.664,14.224 C142.448004,14.224 143.183997,14.3479988 143.872,14.596 C144.560004,14.8440012 145.151998,15.2239974 145.648,15.736 C146.752006,16.8560056 147.304,18.4079901 147.304,20.392 C147.304,22.3440098 146.752006,23.8799944 145.648,25 C144.655995,26.0240051 143.328009,26.536 141.664,26.536 C139.999992,26.536 138.656006,26.0240051 137.632,25 C136.527995,23.8959945 135.976,22.3600098 135.976,20.392 C135.976,18.39199 136.527995,16.8400055 137.632,15.736 C138.640005,14.727995 139.983992,14.224 141.664,14.224 Z M144.472,20.368 C144.472,19.1359938 144.232003,18.2120031 143.752,17.596 C143.271998,16.9799969 142.604005,16.672 141.748,16.672 C140.891996,16.672 140.192003,16.9799969 139.648,17.596 C139.103998,18.2120031 138.832,19.1359938 138.832,20.368 C138.832,21.6000062 139.075998,22.5239969 139.564,23.14 C140.052003,23.7560031 140.719996,24.064 141.568,24.064 C142.416005,24.064 143.111998,23.7560031 143.656,23.14 C144.200003,22.5239969 144.472,21.6000062 144.472,20.368 Z M153.698,14.224 C154.482004,14.224 155.217997,14.3479988 155.906,14.596 C156.594004,14.8440012 157.185998,15.2239974 157.682,15.736 C158.786006,16.8560056 159.338,18.4079901 159.338,20.392 C159.338,22.3440098 158.786006,23.8799944 157.682,25 C156.689995,26.0240051 155.362009,26.536 153.698,26.536 C152.033992,26.536 150.690006,26.0240051 149.666,25 C148.561995,23.8959945 148.01,22.3600098 148.01,20.392 C148.01,18.39199 148.561995,16.8400055 149.666,15.736 C150.674005,14.727995 152.017992,14.224 153.698,14.224 Z M156.506,20.368 C156.506,19.1359938 156.266003,18.2120031 155.786,17.596 C155.305998,16.9799969 154.638005,16.672 153.782,16.672 C152.925996,16.672 152.226003,16.9799969 151.682,17.596 C151.137998,18.2120031 150.866,19.1359938 150.866,20.368 C150.866,21.6000062 151.109998,22.5239969 151.598,23.14 C152.086003,23.7560031 152.753996,24.064 153.602,24.064 C154.450005,24.064 155.145998,23.7560031 155.69,23.14 C156.234003,22.5239969 156.506,21.6000062 156.506,20.368 Z M161.148,9.736 L163.98,9.736 L163.98,26.2 L161.148,26.2 L161.148,9.736 Z M179.600001,14.92 C179.343999,13.5599932 178.384009,12.88 176.720001,12.88 C175.903996,12.88 175.268003,13.0439984 174.812001,13.372 C174.355998,13.7000016 174.128001,14.0959977 174.128001,14.56 C174.128001,15.0240023 174.275999,15.3879987 174.572001,15.652 C174.868002,15.9160013 175.327997,16.1599989 175.952001,16.384 L179.336001,17.704 C180.488006,18.1520022 181.375997,18.7159966 182.000001,19.396 C182.624004,20.0760034 182.936001,20.9279949 182.936001,21.952 C182.936001,23.360007 182.408006,24.4759959 181.352001,25.3 C180.295995,26.1240041 178.79201,26.536 176.840001,26.536 C175.111992,26.536 173.712006,26.1120042 172.640001,25.264 C171.439995,24.3359954 170.808001,23.0240085 170.744001,21.328 L173.552001,21.328 C173.552001,22.6080064 174.215994,23.4159983 175.544001,23.752 C175.944003,23.8640006 176.471997,23.92 177.128001,23.92 C177.784004,23.92 178.391998,23.7560016 178.952001,23.428 C179.512003,23.0999984 179.792001,22.6600028 179.792001,22.108 C179.792001,21.5559972 179.640002,21.1320015 179.336001,20.836 C179.031999,20.5399985 178.536004,20.2640013 177.848001,20.008 L174.752001,18.784 C173.551995,18.3199977 172.632004,17.7760031 171.992001,17.152 C171.351997,16.5279969 171.032001,15.6640055 171.032001,14.56 C171.032001,13.2639935 171.535996,12.2400038 172.544001,11.488 C173.568006,10.7039961 174.955992,10.312 176.708001,10.312 C178.460009,10.312 179.811996,10.715996 180.764001,11.524 C181.716005,12.332004 182.264,13.4639927 182.408001,14.92 L179.600001,14.92 Z M185.178001,10.624 L188.010001,10.624 L188.010001,26.2 L185.178001,26.2 L185.178001,10.624 Z M199.108001,14.92 C198.851999,13.5599932 197.892009,12.88 196.228001,12.88 C195.411997,12.88 194.776003,13.0439984 194.320001,13.372 C193.863998,13.7000016 193.636001,14.0959977 193.636001,14.56 C193.636001,15.0240023 193.783999,15.3879987 194.080001,15.652 C194.376002,15.9160013 194.835998,16.1599989 195.460001,16.384 L198.844001,17.704 C199.996006,18.1520022 200.883998,18.7159966 201.508001,19.396 C202.132004,20.0760034 202.444001,20.9279949 202.444001,21.952 C202.444001,23.360007 201.916006,24.4759959 200.860001,25.3 C199.803995,26.1240041 198.30001,26.536 196.348001,26.536 C194.619992,26.536 193.220006,26.1120042 192.148001,25.264 C190.947995,24.3359954 190.316001,23.0240085 190.252001,21.328 L193.060001,21.328 C193.060001,22.6080064 193.723994,23.4159983 195.052001,23.752 C195.452003,23.8640006 195.979997,23.92 196.636001,23.92 C197.292004,23.92 197.899998,23.7560016 198.460001,23.428 C199.020003,23.0999984 199.300001,22.6600028 199.300001,22.108 C199.300001,21.5559972 199.148002,21.1320015 198.844001,20.836 C198.539999,20.5399985 198.044004,20.2640013 197.356001,20.008 L194.260001,18.784 C193.059995,18.3199977 192.140004,17.7760031 191.500001,17.152 C190.859997,16.5279969 190.540001,15.6640055 190.540001,14.56 C190.540001,13.2639935 191.043996,12.2400038 192.052001,11.488 C193.076006,10.7039961 194.463992,10.312 196.216001,10.312 C197.968009,10.312 199.319996,10.715996 200.272001,11.524 C201.224005,12.332004 201.772,13.4639927 201.916001,14.92 L199.108001,14.92 Z" id="PowerSchool-SIS" fill="#FFFFFF"></path>
        <path d="M15.0310916,0 L8.89083786,0 C8.73081485,0 8.58488192,0.052 8.46410985,0.138 C8.25376514,0.266 8.11185795,0.494 8.11185795,0.758 L8.11185795,34.543 L5.49915531,34.543 L5.49915531,0.758 C5.49915531,0.355 5.17105783,0.029 4.76647137,0.029 L0.733690378,0.029 C0.329103914,0.029 0,0.355 0,0.758 L0,35.24 C0,35.62 0.280795083,35.96 0.662233565,35.996 C1.09902592,36.038 1.46637432,35.697 1.46637432,35.271 L1.46637432,1.486 L4.03278099,1.486 L4.03278099,35.271 C4.03278099,35.674 4.36087847,36 4.76647137,36 L8.84554833,36 C9.25013479,36 9.57823227,35.674 9.57823227,35.271 L9.57823227,2.007 C9.57823227,1.703 9.82581503,1.457 10.131771,1.457 L15.0310916,1.457 C21.4813271,1.457 26.5336257,6.577 26.5336257,13.113 C26.5336257,19.649 21.4813271,24.77 15.0310916,24.77 L13.6100068,24.77 L13.6100068,22.571 L14.2651954,22.571 C19.4785234,22.571 23.7297006,18.414 23.8051831,13.275 C23.883685,7.985 19.4352468,3.655 14.1102045,3.655 L12.8763165,3.655 C12.47173,3.655 12.1436325,3.981 12.1436325,4.384 L12.1436325,8.225 C12.1436325,8.488 12.2845333,8.717 12.4958844,8.845 C12.6237015,8.953 12.7877503,9.021 12.9689084,9.021 L13.6995795,9.021 C15.8452967,9.021 17.6739873,10.676 17.7555084,12.805 C17.8400489,15.044 16.031487,16.893 13.7972036,16.893 L12.9085223,16.893 C12.525071,16.893 12.1828834,17.17 12.1466518,17.549 C12.105388,17.983 12.4475756,18.35 12.8763165,18.35 L13.6814636,18.35 C16.634341,18.35 19.134323,16.053 19.2218828,13.12 C19.3134682,10.072 16.8446857,7.564 13.7972036,7.564 L13.6100068,7.564 L13.6100068,5.112 L14.1192624,5.112 C18.624061,5.112 22.4032206,8.774 22.3388088,13.25 C22.2774163,17.597 18.6794148,21.114 14.2651954,21.114 L12.8763165,21.114 C12.47173,21.114 12.1436325,21.44 12.1436325,21.843 L12.1436325,25.498 C12.1436325,25.9 12.47173,26.227 12.8763165,26.227 L15.0310916,26.227 C22.3035836,26.227 28,20.467 28,13.113 C28,5.76 22.3035836,0 15.0310916,0" id="P" fill="#FFFFFF"></path>
    </g>
</svg>